<?xml version="1.0" encoding="UTF-8"?>
<!DOCTYPE svg PUBLIC "-//W3C//DTD SVG 1.1//EN" "http://www.w3.org/Graphics/SVG/1.1/DTD/svg11.dtd">
<svg xmlns="http://www.w3.org/2000/svg" version="1.1" width="722px" height="346px" style="shape-rendering:geometricPrecision; text-rendering:geometricPrecision; image-rendering:optimizeQuality; fill-rule:evenodd; clip-rule:evenodd" xmlns:xlink="http://www.w3.org/1999/xlink">
<g><path style="opacity:0.481" fill="#e9e9e9" d="M 283.5,5.5 C 276.352,6.49163 269.019,6.82497 261.5,6.5C 261.737,7.79105 261.404,8.79105 260.5,9.5C 260.5,8.16667 260.5,6.83333 260.5,5.5C 268.167,5.5 275.833,5.5 283.5,5.5 Z"/></g>
<g><path style="opacity:0.459" fill="#e3e3e3" d="M 423.5,6.5 C 415.913,6.18583 408.413,6.51916 401,7.5C 400.5,36.4981 400.333,65.4981 400.5,94.5C 400.5,94.8333 400.5,95.1667 400.5,95.5C 399.336,66.0028 399.169,36.3362 400,6.5C 407.932,5.17261 415.765,5.17261 423.5,6.5 Z"/></g>
<g><path style="opacity:0.996" fill="#fdfdfd" d="M 91.5,53.5 C 84.2653,54.811 76.932,54.811 69.5,53.5C 69.8314,44.8078 69.498,36.1411 68.5,27.5C 67.8933,27.6236 67.56,27.9569 67.5,28.5C 35.1452,28.3666 21.6452,44.3666 27,76.5C 31.0936,89.5894 39.9269,97.4227 53.5,100C 66.34,100.169 79.0066,100.669 91.5,101.5C 91.5,108.5 91.5,115.5 91.5,122.5C 79.5,122.5 67.5,122.5 55.5,122.5C 38.5702,121.618 24.4035,114.951 13,102.5C 12.4867,101.473 11.9867,100.473 11.5,99.5C 10.0078,95.1822 8.00778,91.1822 5.5,87.5C 4.59603,86.791 4.26269,85.791 4.5,84.5C 4.70621,81.5049 4.03954,78.8383 2.5,76.5C 2.44312,75.391 2.10978,74.391 1.5,73.5C 2.45661,65.0051 3.12328,56.3385 3.5,47.5C 9.19194,23.8038 24.1919,10.4704 48.5,7.5C 62.729,6.36069 76.8957,6.36069 91,7.5C 91.4999,22.8297 91.6666,38.163 91.5,53.5 Z"/></g>
<g><path style="opacity:0.257" fill="#e6e6e6" d="M 91.5,53.5 C 91.6666,38.163 91.4999,22.8297 91,7.5C 76.8957,6.36069 62.729,6.36069 48.5,7.5C 50.631,6.68618 52.9644,6.18618 55.5,6C 66.8794,5.81218 78.2128,5.31218 89.5,4.5C 90.1667,4.83333 90.8333,5.16667 91.5,5.5C 92.8266,21.6617 92.8266,37.6617 91.5,53.5 Z"/></g>
<g><path style="opacity:0.996" fill="#fcfcfc" d="M 143.5,6.5 C 158.734,43.5205 173.4,80.8538 187.5,118.5C 187.5,119.833 187.5,121.167 187.5,122.5C 180.167,122.5 172.833,122.5 165.5,122.5C 164.5,122.167 163.833,121.5 163.5,120.5C 164.097,120.265 164.43,119.765 164.5,119C 163.629,115.529 162.296,112.362 160.5,109.5C 154.647,93.1154 148.48,76.7821 142,60.5C 135.915,77.5922 129.749,94.5922 123.5,111.5C 121.399,114.797 120.065,118.463 119.5,122.5C 111.804,122.831 104.138,122.497 96.5,121.5C 97.2458,120.264 97.5792,118.93 97.5,117.5C 110.792,81.946 124.459,46.6127 138.5,11.5C 139.558,10.3998 140.392,9.06644 141,7.5C 141.671,6.74756 142.504,6.41423 143.5,6.5 Z"/></g>
<g><path style="opacity:0.997" fill="#fcfcfc" d="M 283.5,5.5 C 290.875,24.6175 297.875,43.9509 304.5,63.5C 304.128,66.0217 304.961,68.0217 307,69.5C 307.464,68.9056 307.631,68.2389 307.5,67.5C 307.767,65.0347 308.434,62.7014 309.5,60.5C 311.834,58.8243 312.834,56.491 312.5,53.5C 314.313,46.5641 316.646,39.8974 319.5,33.5C 320.965,32.5943 321.965,31.261 322.5,29.5C 329.468,28.503 336.468,28.1697 343.5,28.5C 343.5,29.5 343.5,30.5 343.5,31.5C 332.686,61.112 321.353,90.4454 309.5,119.5C 308.626,121.69 306.959,122.69 304.5,122.5C 289.833,84.8333 275.167,47.1667 260.5,9.5C 261.404,8.79105 261.737,7.79105 261.5,6.5C 269.019,6.82497 276.352,6.49163 283.5,5.5 Z"/></g>
<g><path style="opacity:0.995" fill="#fefefe" d="M 384.5,6.5 C 384.5,38.8333 384.5,71.1667 384.5,103.5C 388.833,103.5 393.167,103.5 397.5,103.5C 397.5,109.833 397.5,116.167 397.5,122.5C 381.5,122.5 365.5,122.5 349.5,122.5C 349.5,116.167 349.5,109.833 349.5,103.5C 353.833,103.5 358.167,103.5 362.5,103.5C 362.5,71.1667 362.5,38.8333 362.5,6.5C 369.833,5.16667 377.167,5.16667 384.5,6.5 Z"/></g>
<g><path style="opacity:0.997" fill="#fefefe" d="M 423.5,6.5 C 439.657,28.81 455.324,51.4767 470.5,74.5C 471.735,77.9583 473.735,80.9583 476.5,83.5C 477.5,58.1754 477.833,32.8421 477.5,7.5C 484.313,6.50881 491.313,6.17547 498.5,6.5C 498.5,45.1667 498.5,83.8333 498.5,122.5C 491.167,122.5 483.833,122.5 476.5,122.5C 458.764,98.6994 441.764,74.3661 425.5,49.5C 425.092,48.3569 424.425,47.3569 423.5,46.5C 422.501,62.4861 422.167,78.4861 422.5,94.5C 415.167,94.5 407.833,94.5 400.5,94.5C 400.333,65.4981 400.5,36.4981 401,7.5C 408.413,6.51916 415.913,6.18583 423.5,6.5 Z"/></g>
<g><path style="opacity:0.63" fill="#f0f0f0" d="M 192.5,5.5 C 200.609,4.88641 208.442,5.55308 216,7.5C 216.591,31.4058 216.424,55.2391 215.5,79C 207.587,79.8141 199.754,79.6474 192,78.5C 192.259,54.1382 192.426,29.8049 192.5,5.5 Z"/></g>
<g><path style="opacity:1" fill="#fefefe" d="M 193.5,6.5 C 200.5,6.5 207.5,6.5 214.5,6.5C 214.5,30.5 214.5,54.5 214.5,78.5C 207.5,78.5 200.5,78.5 193.5,78.5C 193.5,54.5 193.5,30.5 193.5,6.5 Z"/></g>
<g><path style="opacity:0.133" fill="#e2e2e2" d="M 143.5,6.5 C 142.504,6.41423 141.671,6.74756 141,7.5C 140.392,9.06644 139.558,10.3998 138.5,11.5C 138.491,9.69161 138.991,8.02494 140,6.5C 141.292,5.20891 142.458,5.20891 143.5,6.5 Z"/></g>
<g><path style="opacity:0.608" fill="#eeeeee" d="M 343.5,31.5 C 343.5,30.5 343.5,29.5 343.5,28.5C 336.468,28.1697 329.468,28.503 322.5,29.5C 321.965,31.261 320.965,32.5943 319.5,33.5C 319.563,28.6044 322.063,26.2711 327,26.5C 332.481,26.8171 337.981,26.9837 343.5,27C 344.801,28.6155 344.801,30.1155 343.5,31.5 Z"/></g>
<g><path style="opacity:0.195" fill="#dfdfdf" d="M 67.5,28.5 C 67.56,27.9569 67.8933,27.6236 68.5,27.5C 69.498,36.1411 69.8314,44.8078 69.5,53.5C 68.8333,45.1667 68.1667,36.8333 67.5,28.5 Z"/></g>
<g><path style="opacity:0.088" fill="#dedede" d="M 362.5,6.5 C 362.5,38.8333 362.5,71.1667 362.5,103.5C 358.167,103.5 353.833,103.5 349.5,103.5C 349.167,103.5 348.833,103.5 348.5,103.5C 352.634,102.515 356.968,102.182 361.5,102.5C 361.168,70.329 361.502,38.329 362.5,6.5 Z"/></g>
<g><path style="opacity:0.673" fill="#ededed" d="M 476.5,7.5 C 476.833,7.5 477.167,7.5 477.5,7.5C 477.833,32.8421 477.5,58.1754 476.5,83.5C 473.735,80.9583 471.735,77.9583 470.5,74.5C 472.339,75.5077 473.672,77.0077 474.5,79C 475.6,79.4317 476.267,78.9317 476.5,77.5C 475.182,54.0203 475.182,30.687 476.5,7.5 Z"/></g>
<g><path style="opacity:0.494" fill="#ebebeb" d="M 425.5,49.5 C 423.516,64.4636 422.849,79.7969 423.5,95.5C 415.632,95.7076 407.965,95.7076 400.5,95.5C 400.5,95.1667 400.5,94.8333 400.5,94.5C 407.833,94.5 415.167,94.5 422.5,94.5C 422.167,78.4861 422.501,62.4861 423.5,46.5C 424.425,47.3569 425.092,48.3569 425.5,49.5 Z"/></g>
<g><path style="opacity:0.544" fill="#ececec" d="M 476.5,122.5 C 483.833,122.5 491.167,122.5 498.5,122.5C 498.5,83.8333 498.5,45.1667 498.5,6.5C 491.313,6.17547 484.313,6.50881 477.5,7.5C 477.167,7.5 476.833,7.5 476.5,7.5C 483.76,5.53486 491.427,4.86819 499.5,5.5C 499.532,44.6741 499.532,84.0074 499.5,123.5C 491.648,123.825 483.982,123.492 476.5,122.5 Z"/></g>
<g><path style="opacity:0.62" fill="#e4e4e4" d="M 312.5,53.5 C 312.834,56.491 311.834,58.8243 309.5,60.5C 309.935,57.8427 310.935,55.5093 312.5,53.5 Z"/></g>
<g><path style="opacity:0.169" fill="#e0e0e0" d="M 3.5,47.5 C 3.12328,56.3385 2.45661,65.0051 1.5,73.5C 1.33375,66.825 1.50042,60.1583 2,53.5C 2.19088,51.2922 2.69088,49.2922 3.5,47.5 Z"/></g>
<g><path style="opacity:0.353" fill="#e2e2e2" d="M 304.5,63.5 C 305.143,65.0764 306.143,66.4097 307.5,67.5C 307.631,68.2389 307.464,68.9056 307,69.5C 304.961,68.0217 304.128,66.0217 304.5,63.5 Z"/></g>
<g><path style="opacity:0.086" fill="#dedede" d="M 2.5,76.5 C 4.03954,78.8383 4.70621,81.5049 4.5,84.5C 3.2318,82.0948 2.56513,79.4282 2.5,76.5 Z"/></g>
<g><path style="opacity:0.42" fill="#e9e9e9" d="M 5.5,87.5 C 8.00778,91.1822 10.0078,95.1822 11.5,99.5C 8.45979,96.0864 6.45979,92.0864 5.5,87.5 Z"/></g>
<g><path style="opacity:0.996" fill="#fefefe" d="M 257.5,101.5 C 258.833,108.5 258.833,115.5 257.5,122.5C 236.167,122.5 214.833,122.5 193.5,122.5C 193.5,115.5 193.5,108.5 193.5,101.5C 214.833,101.5 236.167,101.5 257.5,101.5 Z"/></g>
<g><path style="opacity:0.435" fill="#e6e6e6" d="M 160.5,109.5 C 162.296,112.362 163.629,115.529 164.5,119C 164.43,119.765 164.097,120.265 163.5,120.5C 162.297,116.89 161.297,113.223 160.5,109.5 Z"/></g>
<g><path style="opacity:0.424" fill="#e5e5e5" d="M 123.5,111.5 C 122.935,115.537 121.601,119.203 119.5,122.5C 120.065,118.463 121.399,114.797 123.5,111.5 Z"/></g>
<g><path style="opacity:0.553" fill="#e7e7e7" d="M 91.5,101.5 C 92.4916,108.648 92.825,115.981 92.5,123.5C 90.5122,123.827 88.5122,124.16 86.5,124.5C 76.0107,123.904 65.6773,123.237 55.5,122.5C 67.5,122.5 79.5,122.5 91.5,122.5C 91.5,115.5 91.5,108.5 91.5,101.5 Z"/></g>
<g><path style="opacity:0.545" fill="#ededed" d="M 97.5,117.5 C 97.5792,118.93 97.2458,120.264 96.5,121.5C 104.138,122.497 111.804,122.831 119.5,122.5C 118.626,123.525 117.459,124.192 116,124.5C 109.212,123.555 102.379,123.222 95.5,123.5C 95.2594,121.102 95.9261,119.102 97.5,117.5 Z"/></g>
<g><path style="opacity:0.549" fill="#ececec" d="M 187.5,118.5 C 190.406,121.396 189.739,123.396 185.5,124.5C 180.68,123.192 175.846,123.192 171,124.5C 168.97,124.046 167.137,123.38 165.5,122.5C 172.833,122.5 180.167,122.5 187.5,122.5C 187.5,121.167 187.5,119.833 187.5,118.5 Z"/></g>
<g><path style="opacity:0.516" fill="#e7e7e7" d="M 257.5,101.5 C 236.167,101.5 214.833,101.5 193.5,101.5C 193.5,108.5 193.5,115.5 193.5,122.5C 214.833,122.5 236.167,122.5 257.5,122.5C 236.004,123.663 214.337,123.829 192.5,123C 191.167,115.667 191.167,108.333 192.5,101C 214.337,100.171 236.004,100.337 257.5,101.5 Z"/></g>
<g><path style="opacity:0.188" fill="#e2e2e2" d="M 309.5,119.5 C 309.343,123.273 307.676,124.273 304.5,122.5C 306.959,122.69 308.626,121.69 309.5,119.5 Z"/></g>
<g><path style="opacity:0.545" fill="#e8e8e8" d="M 384.5,6.5 C 385.498,38.329 385.832,70.329 385.5,102.5C 389.682,102.33 393.682,102.33 397.5,102.5C 398.833,109.5 398.833,116.5 397.5,123.5C 396.554,123.987 395.554,124.32 394.5,124.5C 379.805,123.353 365.139,123.186 350.5,124C 349.584,123.626 348.75,123.126 348,122.5C 347.249,116.116 347.416,109.783 348.5,103.5C 348.833,103.5 349.167,103.5 349.5,103.5C 349.5,109.833 349.5,116.167 349.5,122.5C 365.5,122.5 381.5,122.5 397.5,122.5C 397.5,116.167 397.5,109.833 397.5,103.5C 393.167,103.5 388.833,103.5 384.5,103.5C 384.5,71.1667 384.5,38.8333 384.5,6.5 Z"/></g>
<g><path style="opacity:0.17" fill="#e2e2e2" d="M 416.5,135.5 C 421.823,134.834 427.323,134.501 433,134.5C 441.388,134.327 449.555,134.994 457.5,136.5C 443.844,135.81 430.178,135.477 416.5,135.5 Z"/></g>
<g><path style="opacity:0.994" fill="#fcfcfc" d="M 207.5,157.5 C 208.29,164.471 208.623,171.471 208.5,178.5C 207.89,182.829 206.39,186.829 204,190.5C 199.694,195.487 194.861,199.653 189.5,203C 195.923,218.013 202.756,232.846 210,247.5C 210.798,249.259 210.631,250.926 209.5,252.5C 201.816,253.889 194.15,253.722 186.5,252C 181.086,241.34 176.086,230.507 171.5,219.5C 171.614,216.784 170.614,214.784 168.5,213.5C 167.559,211.95 166.893,210.284 166.5,208.5C 166.67,207.178 166.337,206.011 165.5,205C 161.179,204.501 156.846,204.334 152.5,204.5C 152.5,220.167 152.5,235.833 152.5,251.5C 152.082,252.222 151.416,252.722 150.5,253C 143.517,253.913 136.683,253.413 130,251.5C 129.333,228.833 129.333,206.167 130,183.5C 145.756,182.509 161.589,182.175 177.5,182.5C 184.395,181.089 187.729,176.756 187.5,169.5C 187.445,166.64 186.445,164.307 184.5,162.5C 181.806,160.486 178.806,158.986 175.5,158C 160.5,157.667 145.5,157.333 130.5,157C 129.167,149.667 129.167,142.333 130.5,135C 146.167,134.333 161.833,134.333 177.5,135C 192.567,136.007 202.567,143.507 207.5,157.5 Z"/></g>
<g><path style="opacity:0.997" fill="#fcfcfc" d="M 276.5,163.5 C 278.339,162.492 279.672,160.992 280.5,159C 284.833,158.833 289.167,158.667 293.5,158.5C 298.222,158.508 302.555,159.175 306.5,160.5C 297.856,172.66 289.356,184.993 281,197.5C 280.833,215.842 280.333,234.176 279.5,252.5C 271.974,253.929 264.641,253.596 257.5,251.5C 258.154,232.47 257.487,213.803 255.5,195.5C 241.863,177.015 228.363,158.348 215,139.5C 214.506,137.866 214.34,136.199 214.5,134.5C 223.173,134.334 231.84,134.5 240.5,135C 249.672,147.665 259.006,160.165 268.5,172.5C 271.189,169.48 273.856,166.48 276.5,163.5 Z"/></g>
<g><path style="opacity:0.999" fill="#fdfdfd" d="M 385.5,207.5 C 385.733,209.062 386.4,210.395 387.5,211.5C 387.56,212.043 387.893,212.376 388.5,212.5C 389.5,186.842 389.833,161.175 389.5,135.5C 396.5,134.167 403.5,134.167 410.5,135.5C 410.5,174.167 410.5,212.833 410.5,251.5C 402.778,251.767 395.111,251.434 387.5,250.5C 370.687,227.554 354.353,204.221 338.5,180.5C 337.952,178.606 336.952,176.94 335.5,175.5C 334.501,191.82 334.167,208.153 334.5,224.5C 326.913,224.814 319.413,224.481 312,223.5C 311.175,194.125 311.342,164.791 312.5,135.5C 319.811,134.335 327.144,134.169 334.5,135C 352.109,158.769 369.109,182.936 385.5,207.5 Z"/></g>
<g><path style="opacity:0.997" fill="#fdfdfd" d="M 416.5,135.5 C 430.178,135.477 443.844,135.81 457.5,136.5C 474.65,138.486 488.15,146.486 498,160.5C 500.936,165.475 502.769,170.808 503.5,176.5C 503.958,186.331 504.625,195.998 505.5,205.5C 505.167,206.167 504.833,206.833 504.5,207.5C 503.076,209.515 502.41,211.848 502.5,214.5C 500.805,222.899 496.805,229.899 490.5,235.5C 488.5,235.5 487.5,236.5 487.5,238.5C 478.834,244.949 469.168,249.282 458.5,251.5C 457.551,250.848 456.385,250.514 455,250.5C 450.978,250.892 447.145,251.558 443.5,252.5C 434.692,253.759 426.025,253.759 417.5,252.5C 416.516,236.911 416.183,221.244 416.5,205.5C 423.833,205.5 431.167,205.5 438.5,205.5C 439.167,205.5 439.5,205.833 439.5,206.5C 438.834,210.319 438.501,214.319 438.5,218.5C 438.509,222.893 439.176,226.893 440.5,230.5C 450.802,230.507 460.468,228.174 469.5,223.5C 474.338,221.329 477.338,217.663 478.5,212.5C 479.754,208.565 480.754,204.565 481.5,200.5C 482.652,195.015 482.818,189.349 482,183.5C 481.617,182.944 481.117,182.611 480.5,182.5C 476.756,169.757 468.423,161.757 455.5,158.5C 454.737,157.732 453.737,157.232 452.5,157C 447.845,156.501 443.179,156.334 438.5,156.5C 438.263,157.791 438.596,158.791 439.5,159.5C 439.666,166.841 439.5,174.174 439,181.5C 438.5,182 438,182.5 437.5,183C 430.253,183.812 423.086,183.646 416,182.5C 415.172,166.661 415.339,150.995 416.5,135.5 Z"/></g>
<g><path style="opacity:0.996" fill="#fdfdfd" d="M 564.5,156.5 C 553.5,156.5 542.5,156.5 531.5,156.5C 531.5,165.5 531.5,174.5 531.5,183.5C 547.5,183.5 563.5,183.5 579.5,183.5C 580.126,190.584 579.459,197.25 577.5,203.5C 562.167,203.5 546.833,203.5 531.5,203.5C 531.5,212.5 531.5,221.5 531.5,230.5C 541.015,230.827 550.348,230.494 559.5,229.5C 561.292,229.366 562.958,229.699 564.5,230.5C 564.5,237.5 564.5,244.5 564.5,251.5C 546.167,251.5 527.833,251.5 509.5,251.5C 508.34,212.905 508.173,174.238 509,135.5C 527.769,134.175 546.602,134.175 565.5,135.5C 566.125,138.612 566.459,141.779 566.5,145C 566.714,149.133 566.048,152.966 564.5,156.5 Z"/></g>
<g><path style="opacity:0.999" fill="#fcfcfc" d="M 605.5,207.5 C 598.167,207.5 590.833,207.5 583.5,207.5C 583.5,183.5 583.5,159.5 583.5,135.5C 586.984,134.835 590.651,134.501 594.5,134.5C 598.595,134.542 602.429,135.208 606,136.5C 606.83,160.337 606.663,184.004 605.5,207.5 Z"/></g>
<g><path style="opacity:0.998" fill="#fefefe" d="M 673.5,136.5 C 672.562,160.148 672.229,183.814 672.5,207.5C 665.5,207.5 658.5,207.5 651.5,207.5C 651.5,183.5 651.5,159.5 651.5,135.5C 654.984,134.835 658.651,134.501 662.5,134.5C 666.565,134.511 670.232,135.178 673.5,136.5 Z"/></g>
<g><path style="opacity:0.473" fill="#eaeaea" d="M 410.5,135.5 C 411.831,174.335 411.831,213.335 410.5,252.5C 405.162,252.997 399.829,253.33 394.5,253.5C 391.499,253.828 389.166,252.828 387.5,250.5C 395.111,251.434 402.778,251.767 410.5,251.5C 410.5,212.833 410.5,174.167 410.5,135.5 Z"/></g>
<g><path style="opacity:0.779" fill="#ededed" d="M 651.5,135.5 C 651.5,159.5 651.5,183.5 651.5,207.5C 658.5,207.5 665.5,207.5 672.5,207.5C 672.229,183.814 672.562,160.148 673.5,136.5C 674.663,159.996 674.83,183.663 674,207.5C 668.075,208.368 662.075,209.034 656,209.5C 654.236,209.456 652.569,209.122 651,208.5C 650.17,183.997 650.337,159.663 651.5,135.5 Z"/></g>
<g><path style="opacity:0.673" fill="#eaeaea" d="M 389.5,135.5 C 389.833,161.175 389.5,186.842 388.5,212.5C 387.893,212.376 387.56,212.043 387.5,211.5C 388.833,203.167 388.833,194.833 387.5,186.5C 387.333,169.83 387.5,153.163 388,136.5C 388.383,135.944 388.883,135.611 389.5,135.5 Z"/></g>
<g><path style="opacity:0.107" fill="#dfdfdf" d="M 455.5,158.5 C 452.188,158.057 448.855,157.724 445.5,157.5C 443.048,157.539 441.048,158.206 439.5,159.5C 438.596,158.791 438.263,157.791 438.5,156.5C 443.179,156.334 447.845,156.501 452.5,157C 453.737,157.232 454.737,157.732 455.5,158.5 Z"/></g>
<g><path style="opacity:0.657" fill="#ececec" d="M 306.5,160.5 C 302.555,159.175 298.222,158.508 293.5,158.5C 289.167,158.667 284.833,158.833 280.5,159C 279.672,160.992 278.339,162.492 276.5,163.5C 277.415,158.593 280.415,156.259 285.5,156.5C 292.772,156.654 300.105,156.821 307.5,157C 308.8,158.579 308.466,159.745 306.5,160.5 Z"/></g>
<g><path style="opacity:0.55" fill="#e9e9e9" d="M 207.5,157.5 C 209.007,161.391 209.674,165.558 209.5,170C 209.498,173.021 209.164,175.854 208.5,178.5C 208.623,171.471 208.29,164.471 207.5,157.5 Z"/></g>
<g><path style="opacity:0.631" fill="#ececec" d="M 184.5,162.5 C 186.445,164.307 187.445,166.64 187.5,169.5C 187.729,176.756 184.395,181.089 177.5,182.5C 180.758,181.079 183.258,178.746 185,175.5C 185.706,171.113 185.54,166.78 184.5,162.5 Z"/></g>
<g><path style="opacity:0.464" fill="#eaeaea" d="M 338.5,180.5 C 337.542,180.047 336.708,179.381 336,178.5C 335.831,194.005 335.331,209.339 334.5,224.5C 334.167,208.153 334.501,191.82 335.5,175.5C 336.952,176.94 337.952,178.606 338.5,180.5 Z"/></g>
<g><path style="opacity:0.382" fill="#e7e7e7" d="M 564.5,156.5 C 554.341,157.33 544.008,157.83 533.5,158C 532.353,165.754 532.186,173.587 533,181.5C 548.598,182.159 564.098,182.826 579.5,183.5C 563.5,183.5 547.5,183.5 531.5,183.5C 531.5,174.5 531.5,165.5 531.5,156.5C 542.5,156.5 553.5,156.5 564.5,156.5 Z"/></g>
<g><path style="opacity:0.455" fill="#eeeeee" d="M 583.5,135.5 C 583.5,159.5 583.5,183.5 583.5,207.5C 590.833,207.5 598.167,207.5 605.5,207.5C 604.469,208.249 603.302,208.915 602,209.5C 595.168,209.178 588.668,208.178 582.5,206.5C 582.806,203.615 582.473,200.948 581.5,198.5C 581.879,177.456 582.546,156.456 583.5,135.5 Z"/></g>
<g><path style="opacity:0.499" fill="#e7e7e7" d="M 503.5,176.5 C 504.302,177.952 504.802,179.618 505,181.5C 505.5,189.493 505.666,197.493 505.5,205.5C 504.625,195.998 503.958,186.331 503.5,176.5 Z"/></g>
<g><path style="opacity:0.132" fill="#e3e3e3" d="M 480.5,182.5 C 481.117,182.611 481.617,182.944 482,183.5C 482.818,189.349 482.652,195.015 481.5,200.5C 481.697,194.455 481.363,188.455 480.5,182.5 Z"/></g>
<g><path style="opacity:0.231" fill="#dcdcdc" d="M 579.5,183.5 C 580.068,189.723 580.735,194.723 581.5,198.5C 582.473,200.948 582.806,203.615 582.5,206.5C 581.732,205.737 581.232,204.737 581,203.5C 579.989,204.337 578.822,204.67 577.5,204.5C 577.5,204.167 577.5,203.833 577.5,203.5C 579.459,197.25 580.126,190.584 579.5,183.5 Z"/></g>
<g><path style="opacity:0.607" fill="#ebebeb" d="M 577.5,203.5 C 577.5,203.833 577.5,204.167 577.5,204.5C 562.588,204.176 547.755,204.509 533,205.5C 532.186,213.413 532.353,221.246 533.5,229C 542.16,229.5 550.827,229.666 559.5,229.5C 550.348,230.494 541.015,230.827 531.5,230.5C 531.5,221.5 531.5,212.5 531.5,203.5C 546.833,203.5 562.167,203.5 577.5,203.5 Z"/></g>
<g><path style="opacity:0.075" fill="#d6d6d6" d="M 387.5,186.5 C 388.833,194.833 388.833,203.167 387.5,211.5C 386.4,210.395 385.733,209.062 385.5,207.5C 386.117,207.611 386.617,207.944 387,208.5C 387.5,201.174 387.666,193.841 387.5,186.5 Z"/></g>
<g><path style="opacity:0.038" fill="#dedede" d="M 439.5,206.5 C 439.199,214.586 439.533,222.586 440.5,230.5C 439.176,226.893 438.509,222.893 438.5,218.5C 438.501,214.319 438.834,210.319 439.5,206.5 Z"/></g>
<g><path style="opacity:0.471" fill="#e1e1e1" d="M 504.5,207.5 C 504.59,210.152 503.924,212.485 502.5,214.5C 502.41,211.848 503.076,209.515 504.5,207.5 Z"/></g>
<g><path style="opacity:0.349" fill="#e3e3e3" d="M 168.5,213.5 C 170.614,214.784 171.614,216.784 171.5,219.5C 169.992,217.819 168.992,215.819 168.5,213.5 Z"/></g>
<g><path style="opacity:0.173" fill="#e2e2e2" d="M 166.5,208.5 C 165.733,207.828 165.066,206.995 164.5,206C 160.909,205.211 157.409,205.378 154,206.5C 153.831,221.672 153.331,236.672 152.5,251.5C 152.5,235.833 152.5,220.167 152.5,204.5C 156.846,204.334 161.179,204.501 165.5,205C 166.337,206.011 166.67,207.178 166.5,208.5 Z"/></g>
<g><path style="opacity:0.612" fill="#eaeaea" d="M 478.5,212.5 C 477.338,217.663 474.338,221.329 469.5,223.5C 472.908,220.099 475.908,216.432 478.5,212.5 Z"/></g>
<g><path style="opacity:0.218" fill="#dfdfdf" d="M 255.5,195.5 C 257.487,213.803 258.154,232.47 257.5,251.5C 256.821,232.931 256.155,214.265 255.5,195.5 Z"/></g>
<g><path style="opacity:0.991" fill="#fdfdfd" d="M 647.5,230.5 C 647.5,237.5 647.5,244.5 647.5,251.5C 626.167,251.5 604.833,251.5 583.5,251.5C 583.5,244.5 583.5,237.5 583.5,230.5C 604.736,229.174 626.069,229.174 647.5,230.5 Z"/></g>
<g><path style="opacity:0.991" fill="#fdfdfd" d="M 714.5,230.5 C 715.462,237.412 715.795,244.412 715.5,251.5C 694.167,251.5 672.833,251.5 651.5,251.5C 651.5,244.5 651.5,237.5 651.5,230.5C 672.5,229.167 693.5,229.167 714.5,230.5 Z"/></g>
<g><path style="opacity:0.358" fill="#e0e0e0" d="M 647.5,230.5 C 648.695,230.866 649.361,231.699 649.5,233C 648.22,238.322 648.22,243.655 649.5,249C 649.613,250.699 648.947,251.866 647.5,252.5C 647.5,252.167 647.5,251.833 647.5,251.5C 647.5,244.5 647.5,237.5 647.5,230.5 Z"/></g>
<g><path style="opacity:0.491" fill="#ededed" d="M 438.5,205.5 C 431.167,205.5 423.833,205.5 416.5,205.5C 416.183,221.244 416.516,236.911 417.5,252.5C 415.515,236.868 414.849,220.868 415.5,204.5C 423.352,204.175 431.018,204.508 438.5,205.5 Z"/></g>
<g><path style="opacity:0.051" fill="#dddddd" d="M 490.5,235.5 C 489.833,236.833 488.833,237.833 487.5,238.5C 487.5,236.5 488.5,235.5 490.5,235.5 Z"/></g>
<g><path style="opacity:0.22" fill="#e4e4e4" d="M 458.5,251.5 C 453.527,252.164 448.527,252.497 443.5,252.5C 447.145,251.558 450.978,250.892 455,250.5C 456.385,250.514 457.551,250.848 458.5,251.5 Z"/></g>
<g><path style="opacity:0.698" fill="#eeeeee" d="M 564.5,230.5 C 565.165,233.984 565.499,237.651 565.5,241.5C 565.458,245.595 564.792,249.429 563.5,253C 548.309,253.186 533.142,253.353 518,253.5C 515.833,253.333 513.667,253.167 511.5,253C 510.584,252.722 509.918,252.222 509.5,251.5C 527.833,251.5 546.167,251.5 564.5,251.5C 564.5,244.5 564.5,237.5 564.5,230.5 Z"/></g>
<g><path style="opacity:0.7" fill="#ebebeb" d="M 583.5,230.5 C 583.5,237.5 583.5,244.5 583.5,251.5C 604.833,251.5 626.167,251.5 647.5,251.5C 647.5,251.833 647.5,252.167 647.5,252.5C 626.573,253.654 605.573,253.821 584.5,253C 582.684,251.281 581.684,249.115 581.5,246.5C 582.075,241.012 582.742,235.679 583.5,230.5 Z"/></g>
<g><path style="opacity:0.721" fill="#ebebeb" d="M 651.5,230.5 C 651.5,237.5 651.5,244.5 651.5,251.5C 672.833,251.5 694.167,251.5 715.5,251.5C 715.795,244.412 715.462,237.412 714.5,230.5C 716.463,237.424 717.13,244.757 716.5,252.5C 695.197,253.633 673.864,253.8 652.5,253C 651.208,249.429 650.542,245.595 650.5,241.5C 650.501,237.651 650.835,233.984 651.5,230.5 Z"/></g>
<g><path style="opacity:0.988" fill="#fafafa" d="M 282.5,283.5 C 284.553,283.402 286.22,284.069 287.5,285.5C 287.973,286.906 288.973,287.573 290.5,287.5C 292.983,289.311 292.983,291.145 290.5,293C 288.119,293.738 286.119,293.238 284.5,291.5C 282.618,288.782 280.285,288.115 277.5,289.5C 271.658,287.876 266.658,289.21 262.5,293.5C 262.19,292.262 261.69,292.262 261,293.5C 259.738,297.909 260.572,301.743 263.5,305C 268.591,307.252 273.925,308.418 279.5,308.5C 283.674,308.659 287.008,310.325 289.5,313.5C 293.124,318.904 293.458,324.57 290.5,330.5C 288.766,333.2 286.432,335.2 283.5,336.5C 276.026,336.762 268.36,336.429 260.5,335.5C 258.492,333.732 256.326,332.066 254,330.5C 253.51,329.207 253.343,327.873 253.5,326.5C 254.167,326.167 254.833,325.833 255.5,325.5C 257.579,327.873 260.246,329.206 263.5,329.5C 263.611,330.117 263.944,330.617 264.5,331C 269.684,331.816 274.684,331.65 279.5,330.5C 279.842,329.662 280.508,329.328 281.5,329.5C 284.853,328.488 286.52,326.154 286.5,322.5C 286.62,319.378 285.287,317.378 282.5,316.5C 276.171,315.067 269.838,313.567 263.5,312C 254.938,308.711 251.771,302.545 254,293.5C 255.489,289.157 258.322,286.157 262.5,284.5C 266.034,284.076 269.534,283.409 273,282.5C 276.125,283.256 279.291,283.589 282.5,283.5 Z"/></g>
<g><path style="opacity:0.984" fill="#f8f8f8" d="M 471.5,282.5 C 475.424,284.147 479.424,285.814 483.5,287.5C 485.263,291.416 483.929,293.083 479.5,292.5C 469.53,286.521 460.363,287.521 452,295.5C 446.731,306.74 447.564,317.407 454.5,327.5C 456.085,329.982 458.085,330.648 460.5,329.5C 461.167,329.5 461.5,329.833 461.5,330.5C 467.357,331.719 473.357,331.719 479.5,330.5C 479.5,324.833 479.5,319.167 479.5,313.5C 475.5,313.5 471.5,313.5 467.5,313.5C 465.418,312.415 465.084,310.915 466.5,309C 471.718,307.437 477.051,307.104 482.5,308C 484.708,308.936 486.042,310.602 486.5,313C 486.959,319.799 486.459,326.633 485,333.5C 482.581,335.585 479.747,336.585 476.5,336.5C 470.5,336.5 464.5,336.5 458.5,336.5C 450.354,335.019 445.02,330.352 442.5,322.5C 442.414,321.504 442.748,320.671 443.5,320C 440.732,311.102 441.065,302.269 444.5,293.5C 450.826,283.51 459.826,279.843 471.5,282.5 Z"/></g>
<g><path style="opacity:0.986" fill="#f9f9f9" d="M 702.5,283.5 C 704.508,285.268 706.674,286.934 709,288.5C 709.49,289.793 709.657,291.127 709.5,292.5C 708.167,293.833 706.833,293.833 705.5,292.5C 702.943,289.58 699.61,288.08 695.5,288C 692.833,287.333 690.167,287.333 687.5,288C 686.584,288.278 685.918,288.778 685.5,289.5C 683.833,291.167 682.167,292.833 680.5,294.5C 678.075,302.266 681.075,306.266 689.5,306.5C 693.2,308.245 697.2,309.245 701.5,309.5C 706.812,309.809 710.146,312.476 711.5,317.5C 711.731,321.993 711.064,326.326 709.5,330.5C 707.565,334.103 704.565,336.103 700.5,336.5C 693.471,336.623 686.471,336.29 679.5,335.5C 676.674,335.002 674.34,333.669 672.5,331.5C 672.116,329.335 672.783,327.668 674.5,326.5C 676.638,328.782 678.971,329.449 681.5,328.5C 686.945,330.345 692.612,331.012 698.5,330.5C 704.918,329.11 706.918,325.443 704.5,319.5C 702.61,317.422 700.276,316.089 697.5,315.5C 692.822,313.392 687.822,312.059 682.5,311.5C 678.16,310.748 674.993,308.414 673,304.5C 670.54,292.294 675.374,284.794 687.5,282C 692.759,281.192 697.759,281.692 702.5,283.5 Z"/></g>
<g><path style="opacity:0.982" fill="#fbfbfb" d="M 60.5,283.5 C 66.6133,285.932 71.9466,289.599 76.5,294.5C 77.9313,295.78 78.5979,297.447 78.5,299.5C 79.959,307.244 79.6256,314.911 77.5,322.5C 74.5866,329.243 69.5866,333.743 62.5,336C 53.8802,337.464 45.2135,337.798 36.5,337C 35.244,336.583 34.5774,335.75 34.5,334.5C 34.3334,318.163 34.5001,301.83 35,285.5C 35.5,285 36,284.5 36.5,284C 44.4931,283.5 52.4931,283.334 60.5,283.5 Z M 57.5,289.5 C 62.5745,290.694 66.5745,293.361 69.5,297.5C 71.2329,303.346 71.8996,309.346 71.5,315.5C 70.7057,320.425 68.3723,324.425 64.5,327.5C 57.185,330.463 49.685,331.129 42,329.5C 41.5001,316.838 41.3334,304.171 41.5,291.5C 41.5,291.167 41.5,290.833 41.5,290.5C 46.6405,289.512 51.9738,289.179 57.5,289.5 Z"/></g>
<g><path style="opacity:0.989" fill="#fbfbfb" d="M 183.5,288.5 C 174.5,288.5 165.5,288.5 156.5,288.5C 156.5,294.5 156.5,300.5 156.5,306.5C 157.791,306.737 158.791,306.404 159.5,305.5C 167.174,305.334 174.841,305.5 182.5,306C 184.553,307.678 184.887,309.511 183.5,311.5C 174.651,311.174 165.984,311.507 157.5,312.5C 156.51,318.645 156.177,324.978 156.5,331.5C 165.506,331.334 174.506,331.5 183.5,332C 184.517,333.049 184.684,334.216 184,335.5C 173.582,336.487 163.082,336.82 152.5,336.5C 151.833,336.5 151.5,336.167 151.5,335.5C 151.5,318.167 151.5,300.833 151.5,283.5C 162.326,282.341 173.326,282.174 184.5,283C 187.078,285.348 186.745,287.181 183.5,288.5 Z"/></g>
<g><path style="opacity:0.855" fill="#e9e9e9" d="M 282.5,283.5 C 279.291,283.589 276.125,283.256 273,282.5C 269.534,283.409 266.034,284.076 262.5,284.5C 269.026,281.07 275.693,280.737 282.5,283.5 Z"/></g>
<g><path style="opacity:0.992" fill="#fbfbfb" d="M 567.5,288.5 C 572.648,294.763 577.814,301.096 583,307.5C 586.082,311.734 588.916,316.067 591.5,320.5C 592.031,322.544 593.198,324.211 595,325.5C 595.5,311.504 595.667,297.504 595.5,283.5C 597.167,283.5 598.833,283.5 600.5,283.5C 600.5,301.167 600.5,318.833 600.5,336.5C 598.777,337.807 596.943,337.807 595,336.5C 587.913,327.315 581.08,317.981 574.5,308.5C 574.573,306.973 573.906,305.973 572.5,305.5C 570.025,303.23 568.025,300.563 566.5,297.5C 566.672,296.508 566.338,295.842 565.5,295.5C 565.44,294.957 565.107,294.624 564.5,294.5C 563.667,308.154 563.167,321.821 563,335.5C 561.644,336.38 560.144,336.714 558.5,336.5C 558.5,336.167 558.5,335.833 558.5,335.5C 558.333,318.497 558.5,301.497 559,284.5C 560.049,283.483 561.216,283.316 562.5,284C 564.037,285.707 565.704,287.207 567.5,288.5 Z"/></g>
<g><path style="opacity:0.467" fill="#e9e9e9" d="M 471.5,282.5 C 476.267,282.636 480.267,284.303 483.5,287.5C 479.424,285.814 475.424,284.147 471.5,282.5 Z"/></g>
<g><path style="opacity:0.551" fill="#ededed" d="M 151.5,283.5 C 151.5,300.833 151.5,318.167 151.5,335.5C 150.661,334.359 149.994,333.026 149.5,331.5C 150.265,316.632 150.265,301.965 149.5,287.5C 149.668,285.829 150.335,284.496 151.5,283.5 Z"/></g>
<g><path style="opacity:0.024" fill="#dbdbdb" d="M 287.5,285.5 C 289.027,285.427 290.027,286.094 290.5,287.5C 288.973,287.573 287.973,286.906 287.5,285.5 Z"/></g>
<g><path style="opacity:0.338" fill="#e4e4e4" d="M 595.5,283.5 C 595.667,297.504 595.5,311.504 595,325.5C 593.198,324.211 592.031,322.544 591.5,320.5C 592.15,320.804 592.817,321.137 593.5,321.5C 594.167,308.673 594.833,296.006 595.5,283.5 Z"/></g>
<g><path style="opacity:0.566" fill="#ebebeb" d="M 368.5,336.5 C 365.092,338.375 362.926,337.375 362,333.5C 361.333,317.167 361.333,300.833 362,284.5C 365.148,280.32 367.814,280.653 370,285.5C 370.167,287.833 370.333,290.167 370.5,292.5C 369.302,305.398 369.302,318.231 370.5,331C 369.891,332.948 369.224,334.782 368.5,336.5 Z"/></g>
<g><path style="opacity:0.999" fill="#fefefe" d="M 368.5,336.5 C 366.856,336.714 365.356,336.38 364,335.5C 363.5,318.17 363.333,300.837 363.5,283.5C 365.144,283.286 366.644,283.62 368,284.5C 368.5,301.83 368.667,319.163 368.5,336.5 Z"/></g>
<g><path style="opacity:0.592" fill="#e8e8e8" d="M 702.5,283.5 C 706.578,284.203 709.578,286.37 711.5,290C 710.934,290.995 710.267,291.828 709.5,292.5C 709.657,291.127 709.49,289.793 709,288.5C 706.674,286.934 704.508,285.268 702.5,283.5 Z"/></g>
<g><path style="opacity:0.131" fill="#dddddd" d="M 57.5,289.5 C 51.9738,289.179 46.6405,289.512 41.5,290.5C 40.9569,290.44 40.6236,290.107 40.5,289.5C 46.3204,288.184 51.9871,288.184 57.5,289.5 Z"/></g>
<g><path style="opacity:0.831" fill="#e7e7e7" d="M 60.5,283.5 C 67.9012,284.198 73.2346,287.864 76.5,294.5C 71.9466,289.599 66.6133,285.932 60.5,283.5 Z"/></g>
<g><path style="opacity:0.269" fill="#e4e4e4" d="M 567.5,288.5 C 565.704,287.207 564.037,285.707 562.5,284C 561.216,283.316 560.049,283.483 559,284.5C 558.5,301.497 558.333,318.497 558.5,335.5C 557.338,318.338 557.171,301.005 558,283.5C 559.133,281.789 560.633,281.289 562.5,282C 564.79,283.777 566.457,285.944 567.5,288.5 Z"/></g>
<g><path style="opacity:0.035" fill="#e2e2e2" d="M 277.5,289.5 C 280.285,288.115 282.618,288.782 284.5,291.5C 282.254,290.545 279.921,289.878 277.5,289.5 Z"/></g>
<g><path style="opacity:0.275" fill="#e4e4e4" d="M 483.5,287.5 C 486.363,290.397 485.863,292.731 482,294.5C 480.699,294.361 479.866,293.695 479.5,292.5C 483.929,293.083 485.263,291.416 483.5,287.5 Z"/></g>
<g><path style="opacity:0.633" fill="#e3e3e3" d="M 183.5,288.5 C 175.343,289.329 167.01,289.829 158.5,290C 157.978,290.561 157.645,291.228 157.5,292C 158.087,296.648 158.754,301.148 159.5,305.5C 158.791,306.404 157.791,306.737 156.5,306.5C 156.5,300.5 156.5,294.5 156.5,288.5C 165.5,288.5 174.5,288.5 183.5,288.5 Z"/></g>
<g><path style="opacity:0.573" fill="#e9e9e9" d="M 705.5,292.5 C 699.198,289.174 692.532,288.174 685.5,289.5C 685.918,288.778 686.584,288.278 687.5,288C 690.167,287.333 692.833,287.333 695.5,288C 699.61,288.08 702.943,289.58 705.5,292.5 Z"/></g>
<g><path style="opacity:0.048" fill="#d4d4d4" d="M 565.5,295.5 C 566.338,295.842 566.672,296.508 566.5,297.5C 565.508,305.316 565.174,313.316 565.5,321.5C 564.167,312.833 564.167,304.167 565.5,295.5 Z"/></g>
<g><path style="opacity:0.22" fill="#dbdbdb" d="M 680.5,294.5 C 680.248,297.32 680.748,299.986 682,302.5C 684.514,304.004 687.014,305.338 689.5,306.5C 681.075,306.266 678.075,302.266 680.5,294.5 Z"/></g>
<g><path style="opacity:0.541" fill="#e2e2e2" d="M 262.5,293.5 C 260.916,296.906 261.25,300.072 263.5,303C 268.832,305.157 274.166,306.991 279.5,308.5C 273.925,308.418 268.591,307.252 263.5,305C 260.572,301.743 259.738,297.909 261,293.5C 261.69,292.262 262.19,292.262 262.5,293.5 Z"/></g>
<g><path style="opacity:0.618" fill="#e8e8e8" d="M 444.5,293.5 C 441.065,302.269 440.732,311.102 443.5,320C 442.748,320.671 442.414,321.504 442.5,322.5C 438.698,314.055 438.531,305.388 442,296.5C 442.377,295.058 443.21,294.058 444.5,293.5 Z"/></g>
<g><path style="opacity:0.654" fill="#eeeeee" d="M 565.5,295.5 C 564.167,304.167 564.167,312.833 565.5,321.5C 564.911,326.481 564.411,331.481 564,336.5C 562.057,337.807 560.223,337.807 558.5,336.5C 560.144,336.714 561.644,336.38 563,335.5C 563.167,321.821 563.667,308.154 564.5,294.5C 565.107,294.624 565.44,294.957 565.5,295.5 Z"/></g>
<g><path style="opacity:0.024" fill="#dcdcdc" d="M 572.5,305.5 C 573.906,305.973 574.573,306.973 574.5,308.5C 573.094,308.027 572.427,307.027 572.5,305.5 Z"/></g>
<g><path style="opacity:0.075" fill="#dcdcdc" d="M 69.5,297.5 C 70.9663,298.347 71.7996,299.68 72,301.5C 72.8151,306.352 72.6484,311.019 71.5,315.5C 71.8996,309.346 71.2329,303.346 69.5,297.5 Z"/></g>
<g><path style="opacity:0.506" fill="#e8e8e8" d="M 689.5,306.5 C 693.837,306.584 697.837,307.584 701.5,309.5C 697.2,309.245 693.2,308.245 689.5,306.5 Z"/></g>
<g><path style="opacity:0.082" fill="#e0e0e0" d="M 78.5,299.5 C 80.4426,304.897 80.9426,310.564 80,316.5C 79.7599,318.852 78.9265,320.852 77.5,322.5C 79.6256,314.911 79.959,307.244 78.5,299.5 Z"/></g>
<g><path style="opacity:0.693" fill="#ededed" d="M 157.5,312.5 C 165.984,311.507 174.651,311.174 183.5,311.5C 183.167,312.5 182.5,313.167 181.5,313.5C 173.684,312.508 165.684,312.174 157.5,312.5 Z"/></g>
<g><path style="opacity:0.216" fill="#e1e1e1" d="M 682.5,311.5 C 687.822,312.059 692.822,313.392 697.5,315.5C 692.192,314.912 687.192,313.579 682.5,311.5 Z"/></g>
<g><path style="opacity:0.071" fill="#e6e6e6" d="M 289.5,313.5 C 292.552,315.44 293.885,318.273 293.5,322C 293.755,325.408 292.755,328.241 290.5,330.5C 293.458,324.57 293.124,318.904 289.5,313.5 Z"/></g>
<g><path style="opacity:0.168" fill="#e1e1e1" d="M 60.5,283.5 C 52.4931,283.334 44.4931,283.5 36.5,284C 36,284.5 35.5,285 35,285.5C 34.5001,301.83 34.3334,318.163 34.5,334.5C 33.3384,318.005 33.1717,301.338 34,284.5C 34.5,284 35,283.5 35.5,283C 44.0104,282.177 52.3437,282.343 60.5,283.5 Z"/></g>
<g><path style="opacity:0.343" fill="#e3e3e3" d="M 282.5,316.5 C 285.287,317.378 286.62,319.378 286.5,322.5C 286.52,326.154 284.853,328.488 281.5,329.5C 286.269,325.451 286.602,321.118 282.5,316.5 Z"/></g>
<g><path style="opacity:0.362" fill="#e0e0e0" d="M 711.5,317.5 C 712.638,320.304 712.805,323.304 712,326.5C 711.8,328.32 710.966,329.653 709.5,330.5C 711.064,326.326 711.731,321.993 711.5,317.5 Z"/></g>
<g><path style="opacity:0.217" fill="#e1e1e1" d="M 41.5,291.5 C 41.3334,304.171 41.5001,316.838 42,329.5C 49.685,331.129 57.185,330.463 64.5,327.5C 62.7786,329.694 60.4453,330.861 57.5,331C 51.8431,331.499 46.1764,331.666 40.5,331.5C 40.1711,317.99 40.5044,304.656 41.5,291.5 Z"/></g>
<g><path style="opacity:0.139" fill="#dedede" d="M 255.5,325.5 C 258.485,326.326 261.151,327.659 263.5,329.5C 260.246,329.206 257.579,327.873 255.5,325.5 Z"/></g>
<g><path style="opacity:0.583" fill="#e9e9e9" d="M 600.5,336.5 C 600.5,318.833 600.5,301.167 600.5,283.5C 598.833,283.5 597.167,283.5 595.5,283.5C 598.486,280.722 600.653,281.389 602,285.5C 601.538,300.68 601.704,315.847 602.5,331C 602.299,333.111 601.633,334.945 600.5,336.5 Z"/></g>
<g><path style="opacity:0.482" fill="#e8e8e8" d="M 704.5,319.5 C 706.918,325.443 704.918,329.11 698.5,330.5C 702.829,328.18 704.829,324.513 704.5,319.5 Z"/></g>
<g><path style="opacity:0.416" fill="#e8e8e8" d="M 253.5,326.5 C 253.343,327.873 253.51,329.207 254,330.5C 256.326,332.066 258.492,333.732 260.5,335.5C 254.502,334.88 252.168,331.88 253.5,326.5 Z"/></g>
<g><path style="opacity:0.145" fill="#e2e2e2" d="M 454.5,327.5 C 456.5,328.167 458.5,328.833 460.5,329.5C 458.085,330.648 456.085,329.982 454.5,327.5 Z"/></g>
<g><path style="opacity:0.447" fill="#e1e1e1" d="M 681.5,328.5 C 678.971,329.449 676.638,328.782 674.5,326.5C 672.783,327.668 672.116,329.335 672.5,331.5C 670.137,329.917 670.137,328.084 672.5,326C 673.833,325.333 675.167,325.333 676.5,326C 678.078,327.094 679.745,327.928 681.5,328.5 Z"/></g>
<g><path style="opacity:0.322" fill="#e2e2e2" d="M 157.5,312.5 C 165.684,312.174 173.684,312.508 181.5,313.5C 173.833,313.5 166.167,313.5 158.5,313.5C 158.172,318.875 158.505,324.208 159.5,329.5C 167.785,330.304 176.118,330.804 184.5,331C 187.167,333 187.167,335 184.5,337C 173.659,337.825 162.992,337.659 152.5,336.5C 163.082,336.82 173.582,336.487 184,335.5C 184.684,334.216 184.517,333.049 183.5,332C 174.506,331.5 165.506,331.334 156.5,331.5C 156.177,324.978 156.51,318.645 157.5,312.5 Z"/></g>
<g><path style="opacity:0.031" fill="#e2e2e2" d="M 263.5,329.5 C 268.787,330.342 274.12,330.676 279.5,330.5C 274.684,331.65 269.684,331.816 264.5,331C 263.944,330.617 263.611,330.117 263.5,329.5 Z"/></g>
<g><path style="opacity:0.835" fill="#e4e4e4" d="M 467.5,313.5 C 471.5,313.5 475.5,313.5 479.5,313.5C 479.5,319.167 479.5,324.833 479.5,330.5C 473.357,331.719 467.357,331.719 461.5,330.5C 466.93,330.839 472.264,330.339 477.5,329C 478.469,324.263 478.803,319.43 478.5,314.5C 474.629,314.815 470.962,314.482 467.5,313.5 Z"/></g>
<g><path style="opacity:0.644" fill="#e9e9e9" d="M 260.5,335.5 C 268.36,336.429 276.026,336.762 283.5,336.5C 275.586,339.335 267.919,339.002 260.5,335.5 Z"/></g>
<g><path style="opacity:0.613" fill="#e8e8e8" d="M 458.5,336.5 C 464.5,336.5 470.5,336.5 476.5,336.5C 470.489,339.037 464.489,339.037 458.5,336.5 Z"/></g>
<g><path style="opacity:0.632" fill="#e6e6e6" d="M 679.5,335.5 C 686.471,336.29 693.471,336.623 700.5,336.5C 693.391,339.152 686.391,338.819 679.5,335.5 Z"/></g>
</svg>
